<?xml version="1.0"?>
<svg xmlns="http://www.w3.org/2000/svg" xmlns:xlink="http://www.w3.org/1999/xlink" version="1.1" id="Capa_1" x="0px" y="0px" viewBox="0 0 512 512" style="enable-background:new 0 0 512 512;" xml:space="preserve" width="512px" height="512px" class=""><g><g>
	<g>
		<path d="M472.423,192.376H387.43L280.503,51.426c4.41-5.429,7.059-12.342,7.059-19.865C287.562,14.159,273.403,0,256,0h-24.047    c-17.403,0-31.562,14.159-31.562,31.562c0,13.832,8.948,25.606,21.357,29.859l-107.57,130.955H39.577    C17.755,192.376,0,210.13,0,231.953v240.47C0,494.245,17.755,512,39.577,512h432.845C494.245,512,512,494.245,512,472.423v-240.47    C512,210.13,494.245,192.376,472.423,192.376z M259.001,15.316c7.686,1.417,13.531,8.156,13.531,16.246    s-5.845,14.829-13.531,16.246c2.864-4.749,4.514-10.307,4.514-16.246S261.864,20.065,259.001,15.316z M215.421,31.562    c0-9.116,7.417-16.532,16.532-16.532c9.116,0,16.532,7.417,16.532,16.532s-7.417,16.532-16.532,16.532    C222.837,48.094,215.421,40.677,215.421,31.562z M496.971,472.423c0,13.536-11.013,24.548-24.548,24.548H39.577    c-13.535,0-24.548-11.011-24.548-24.548v-240.47c0-13.536,11.013-24.548,24.548-24.548h62.255l-21.568,26.256    c-2.742-0.781-5.634-1.207-8.624-1.207c-17.403,0-31.562,14.159-31.562,31.562c0,17.403,14.159,31.562,31.562,31.562    c17.403,0,31.562-14.159,31.562-31.562c0-8.935-3.739-17.01-9.727-22.757l27.807-33.853h106.33c4.15,0,7.515-3.364,7.515-7.515    c0-4.151-3.365-7.515-7.515-7.515h-93.984L239.656,63.298c0.046-0.056,0.084-0.117,0.129-0.174H256    c4.453,0,8.691-0.932,12.536-2.603l100.028,131.856H263.682c-4.15,0-7.515,3.364-7.515,7.515c0,4.151,3.365,7.515,7.515,7.515    h116.284l31.254,41.198c-6.404,5.781-10.437,14.142-10.437,23.428c0,17.403,14.159,31.562,31.562,31.562    s31.562-14.159,31.562-31.562s-14.159-31.562-31.562-31.562c-2.657,0-5.238,0.334-7.705,0.956l-25.808-34.02h73.592    c13.535,0,24.548,11.012,24.548,24.548V472.423z M66.871,261.807c1.399,1.148,3.087,1.707,4.765,1.707    c2.171,0,4.325-0.937,5.811-2.744l6.432-7.829c2.658,2.934,4.293,6.812,4.293,11.075c0,9.117-7.417,16.532-16.532,16.532    c-9.116,0-16.532-7.415-16.532-16.532c0-8.105,5.866-14.852,13.574-16.253l-2.848,3.467    C63.199,254.437,63.663,259.172,66.871,261.807z M438.331,259.474l-2.773-3.655c7.583,1.5,13.319,8.196,13.319,16.213    c0,9.117-7.417,16.532-16.532,16.532s-16.532-7.415-16.532-16.532c0-4.404,1.741-8.4,4.558-11.366l5.988,7.892    c1.478,1.948,3.721,2.973,5.993,2.973c1.582,0,3.178-0.498,4.536-1.527C440.193,267.495,440.84,262.781,438.331,259.474z" data-original="#000000" class="active-path" data-old_color="#33ccff" fill="#33ccff"/>
	</g>
</g><g>
	<g>
		<path d="M151.796,436.189H87.17V331.484c0-4.151-3.365-7.515-7.515-7.515H55.609c-4.15,0-7.515,3.364-7.515,7.515v124.243    c0,10.773,8.765,19.538,19.538,19.538h84.164c4.15,0,7.515-3.364,7.515-7.515v-24.047    C159.311,439.552,155.947,436.189,151.796,436.189z M144.282,460.236h-76.65c-2.486,0-4.509-2.023-4.509-4.509V338.999h9.018    v104.705c0,4.151,3.365,7.515,7.515,7.515h64.626V460.236z" data-original="#000000" class="active-path" data-old_color="#33ccff" fill="#33ccff"/>
	</g>
</g><g>
	<g>
		<path d="M199.89,360.04h-24.047c-4.15,0-7.515,3.364-7.515,7.515v100.196c0,4.151,3.365,7.515,7.515,7.515h24.047    c4.15,0,7.515-3.364,7.515-7.515V367.555C207.405,363.404,204.041,360.04,199.89,360.04z M192.376,460.236h-9.018V375.07h9.018    V460.236z" data-original="#000000" class="active-path" data-old_color="#33ccff" fill="#33ccff"/>
	</g>
</g><g>
	<g>
		<path d="M338.019,329.152l-22.646-8.088c-3.858-1.379-8.23,0.701-9.604,4.55l-25.722,72.022l-25.722-72.023    c-1.376-3.852-5.745-5.926-9.604-4.55l-22.646,8.088c-3.909,1.397-5.946,5.697-4.55,9.605l44.122,123.542    c2.77,7.755,10.165,12.966,18.4,12.966s15.63-5.211,18.4-12.966l44.122-123.541C343.965,334.848,341.928,330.548,338.019,329.152z     M284.293,457.244c-1.393,3.899-7.099,3.899-8.493,0l-41.595-116.466l8.493-3.032l30.272,84.761    c1.056,2.958,3.937,4.988,7.077,4.988s6.021-2.03,7.077-4.988l30.272-84.761l8.493,3.032L284.293,457.244z" data-original="#000000" class="active-path" data-old_color="#33ccff" fill="#33ccff"/>
	</g>
</g><g>
	<g>
		<path d="M456.391,363.046c4.15,0,7.515-3.364,7.515-7.515v-24.047c0-4.151-3.365-7.515-7.515-7.515h-84.164    c-10.773,0-19.538,8.765-19.538,19.538v112.219c0,10.773,8.765,19.538,19.538,19.538h84.164c4.15,0,7.515-3.364,7.515-7.515    v-24.047c0-4.151-3.365-7.515-7.515-7.515h-64.626v-17.033h32.564c4.15,0,7.515-3.364,7.515-7.515v-24.047    c0-4.151-3.365-7.515-7.515-7.515h-32.564v-17.033H456.391z M384.25,395.109h32.564v9.018H384.25c-4.15,0-7.515,3.364-7.515,7.515    v32.063c0,4.151,3.365,7.515,7.515,7.515h64.626v9.018h-76.65c-2.486,0-4.509-2.023-4.509-4.509V343.508    c0-2.486,2.023-4.509,4.509-4.509h76.65v9.018H384.25c-4.15,0-7.515,3.364-7.515,7.515v32.063    C376.736,391.745,380.1,395.109,384.25,395.109z" data-original="#000000" class="active-path" data-old_color="#33ccff" fill="#33ccff"/>
	</g>
</g><g>
	<g>
		<path d="M288.063,224.438H175.843c-4.15,0-7.515,3.364-7.515,7.515v104.204c0,3.235,2.07,6.107,5.138,7.129    c3.036,1.011,6.469-0.061,8.388-2.62l21.793-29.057h84.415c4.15,0,7.515-3.364,7.515-7.515v-72.141    C295.577,227.802,292.213,224.438,288.063,224.438z M280.548,296.579H199.89c-2.366,0-4.592,1.113-6.012,3.006l-10.521,14.027    v-74.145h97.19V296.579z" data-original="#000000" class="active-path" data-old_color="#33ccff" fill="#33ccff"/>
	</g>
</g><g>
	<g>
		<path d="M231.953,256.501h-24.047c-4.15,0-7.515,3.364-7.515,7.515c0,4.151,3.365,7.515,7.515,7.515h24.047    c4.15,0,7.515-3.364,7.515-7.515C239.468,259.865,236.103,256.501,231.953,256.501z" data-original="#000000" class="active-path" data-old_color="#33ccff" fill="#33ccff"/>
	</g>
</g><g>
	<g>
		<path d="M264.016,256.501H256c-4.15,0-7.515,3.364-7.515,7.515c0,4.151,3.365,7.515,7.515,7.515h8.016    c4.15,0,7.515-3.364,7.515-7.515C271.53,259.865,268.166,256.501,264.016,256.501z" data-original="#000000" class="active-path" data-old_color="#33ccff" fill="#33ccff"/>
	</g>
</g></g> </svg>
