<?xml version="1.0" encoding="utf-8"?>
<!-- Generator: Adobe Illustrator 21.0.0, SVG Export Plug-In . SVG Version: 6.00 Build 0)  -->
<svg version="1.1" id="Layer_1" xmlns="http://www.w3.org/2000/svg" xmlns:xlink="http://www.w3.org/1999/xlink" x="0px" y="0px"
	 viewBox="0 0 572.6 965.67" style="enable-background:new 0 0 572.6 965.67;" xml:space="preserve">
<g>
	<g>
		<defs>
			<path id="SVGID_1_" d="M321.576,704.53l193.6-162.746v-289.77l-193.6,162.742V704.53 M173.912,647.5V467.682L57.424,369.76
				v179.818L173.912,647.5 M217.952,301.615l57.273-48.148V123.291l-58.651,49.306v127.855L217.952,301.615 M264.152,965.67V827.821
				V388.012L572.6,128.724V568.53L321.576,779.548v136.742L264.152,965.67L264.152,965.67L264.152,965.67z M231.336,874.179
				l-60.703-50.57V719.761L0,576.324V246.47l231.336,194.467v306.582V874.179L231.336,874.179L231.336,874.179z M231.336,388.012
				l-69.87-58.912l-2.321-1.5V145.852L332.649,0v280.215l-101.312,85.164V388.012L231.336,388.012L231.336,388.012z"/>
		</defs>
		<use xlink:href="#SVGID_1_"  style="overflow:visible;fill:#37B551;"/>
		<clipPath id="SVGID_2_">
			<use xlink:href="#SVGID_1_"  style="overflow:visible;"/>
		</clipPath>
	</g>
</g>
</svg>
